# xmcd
#
# Track frame offsets: 
#        150
#        8878
#        21700
#        34160
#        47460
#        57695
#        72118
#        82440
#        95329
#        112096
#        122705
#        134844
#        151059
#        164542
#        174298
#        187325
#
# Disc length: 2611 seconds
#
# Revision: 0
# Processed by: cddbd v1.4PL0 Copyright (c) Steve Scherf et al.
# Submitted via: ExactAudioCopy v0.90b4
#
DISCID=ec0a3110
DTITLE=Ralph Stanley - The Very Best of Ralph Stanley
DYEAR=2002
DGENRE=Bluegrass
TTITLE0=Ridin' That Midnight Train
TTITLE1=The Fields Have Turned Brown
TTITLE2=Little Maggie
TTITLE3=Will You Miss Me?
TTITLE4=Hard Times
TTITLE5=I've Just Seen The Rock Of Ages
TTITLE6=Little Birdie
TTITLE7=Man Of Constant Sorrow
TTITLE8=Dad's Old Rocky Field
TTITLE9=Clinch Mountain Backstep
TTITLE10=Rank Stranger
TTITLE11=Pretty Polly
TTITLE12=Oh, Death
TTITLE13=Katie Daley
TTITLE14=The Lonesome River
TTITLE15=Angel Band
EXTD=
EXTT0=
EXTT1=
EXTT2=
EXTT3=
EXTT4=
EXTT5=
EXTT6=
EXTT7=
EXTT8=
EXTT9=
EXTT10=
EXTT11=
EXTT12=
EXTT13=
EXTT14=
EXTT15=
PLAYORDER=
